<svg width="573" height="573" viewBox="1178 -4 582 582" fill="none" xmlns="http://www.w3.org/2000/svg">
<path d="M1469.1 573C1506.75 573.269 1544.07 566.036 1578.88 551.724C1613.7 537.411 1645.33 516.306 1671.91 489.639C1698.49 462.972 1719.5 431.276 1733.71 396.401C1747.92 361.525 1755.05 324.169 1754.67 286.509C1754.67 210.629 1724.54 137.856 1670.91 84.2006C1617.29 30.5452 1544.55 0.401855 1468.7 0.401855C1392.86 0.401855 1320.12 30.5452 1266.49 84.2006C1212.86 137.856 1182.74 210.629 1182.74 286.509C1182.39 324.23 1189.56 361.643 1203.83 396.561C1218.09 431.479 1239.17 463.201 1265.83 489.875C1292.49 516.548 1324.21 537.637 1359.11 551.91C1394.01 566.183 1431.4 573.352 1469.1 573ZM1469.1 516.645C1439.13 516.712 1409.46 510.763 1381.83 499.15C1354.2 487.537 1329.17 470.497 1308.24 449.037C1287.31 427.577 1270.9 402.135 1259.97 374.215C1249.04 346.295 1243.82 316.465 1244.62 286.491C1243.82 256.549 1249.04 226.75 1259.94 198.855C1270.85 170.96 1287.23 145.533 1308.12 124.074C1329 102.616 1353.97 85.5602 1381.55 73.9147C1409.14 62.2692 1438.77 56.2694 1468.71 56.2694C1498.65 56.2694 1528.29 62.2692 1555.87 73.9147C1583.45 85.5602 1608.43 102.616 1629.31 124.074C1650.2 145.533 1666.58 170.96 1677.49 198.855C1688.39 226.75 1693.6 256.549 1692.81 286.491C1693.63 316.405 1688.45 346.179 1677.58 374.056C1666.7 401.934 1650.36 427.349 1629.51 448.803C1608.65 470.256 1583.72 487.312 1556.17 498.964C1528.62 510.616 1499.01 516.628 1469.1 516.645Z" fill="black"/>
<path d="M1468.71 125.986C1471.34 167.696 1489.09 207.013 1518.63 236.565C1548.16 266.117 1587.46 283.875 1629.15 286.509C1587.46 289.143 1548.16 306.901 1518.63 336.453C1489.09 366.005 1471.34 405.322 1468.71 447.031C1466.07 405.322 1448.32 366.005 1418.79 336.453C1389.25 306.901 1349.95 289.143 1308.26 286.509C1349.95 283.875 1389.25 266.117 1418.79 236.565C1448.32 207.013 1466.07 167.696 1468.71 125.986Z" fill="black"/>
</svg>
